<svg height="77" viewBox="1100 367 77 77" width="77" xmlns="http://www.w3.org/2000/svg"><g fill="#fff" fill-rule="evenodd" opacity=".942572" transform="translate(1100 367)"><path d="m16.4936872 38.5694992c18.0676301 9.3476353 22.0056236 25.8952383 22.0056236 31.9274851 0-6.0322468 3.9393719-22.5798498 22.007002-31.9274851-18.0676301-9.3456793-22.007002-25.8932823-22.007002-31.92748504 0 6.03420274-3.9379935 22.58180574-22.0056236 31.92748504z"/><path d="m16.4936872 38.5694992c18.0676301 9.3476353 22.0056236 25.8952383 22.0056236 31.9274851 0-6.0322468 3.9393719-22.5798498 22.007002-31.9274851-18.0676301-9.3456793-22.007002-25.8932823-22.007002-31.92748504 0 6.03420274-3.9379935 22.58180574-22.0056236 31.92748504z" transform="matrix(.7193398 .69465837 -.69465837 .7193398 37.598043 -15.919424)"/><path d="m16.4267939 38.5338612c18.0676301 9.3476353 22.0056236 25.8952383 22.0056236 31.9274851 0-6.0322468 3.9393719-22.5798498 22.007002-31.9274851-18.0676301-9.3456793-22.007002-25.8932823-22.007002-31.92748504 0 6.03420274-3.9379935 22.58180574-22.0056236 31.92748504z" transform="matrix(0 1 -1 0 76.966968 .100754)"/><path d="m16.4148801 38.5949516c18.06763 9.3476353 22.0056235 25.8952382 22.0056235 31.927485 0-6.0322468 3.9393719-22.5798497 22.007002-31.927485-18.0676301-9.3456794-22.007002-25.8932824-22.007002-31.9274851 0 6.0342027-3.9379935 22.5818057-22.0056235 31.9274851z" transform="matrix(-.70710678 .70710678 -.70710678 -.70710678 92.879831 38.717818)"/><path d="m16.3130681 38.6631259c18.06763 9.3476353 22.0056236 25.8952383 22.0056236 31.927485 0-6.0322467 3.9393718-22.5798497 22.0070019-31.927485-18.0676301-9.3456793-22.0070019-25.8932823-22.0070019-31.92748507 0 6.03420277-3.9379936 22.58180577-22.0056236 31.92748507z" transform="matrix(-.92718385 -.37460659 .37460659 -.92718385 59.36503 88.865645)"/><path d="m16.4267939 38.5338612c18.0676301 9.3476353 22.0056236 25.8952383 22.0056236 31.9274851 0-6.0322468 3.9393719-22.5798498 22.007002-31.9274851-18.0676301-9.3456793-22.007002-25.8932823-22.007002-31.92748504 0 6.03420274-3.9379935 22.58180574-22.0056236 31.92748504z" transform="matrix(-.37460659 .92718385 -.92718385 -.37460659 88.558376 17.334343)"/><path d="m16.4850042 38.4975436c18.0676301 9.3476353 22.0056236 25.8952382 22.0056236 31.927485 0-6.0322468 3.9393719-22.5798497 22.007002-31.927485-18.0676301-9.3456794-22.007002-25.8932824-22.007002-31.9274851 0 6.0342027-3.9379935 22.5818057-22.0056236 31.9274851z" transform="matrix(-.89879405 .43837115 -.43837115 -.89879405 89.963296 56.225425)"/><path d="m16.5817101 38.4367312c18.0676301 9.3476353 22.0056236 25.8952383 22.0056236 31.9274851 0-6.0322468 3.9393719-22.5798498 22.007002-31.9274851-18.0676301-9.3456793-22.007002-25.8932823-22.007002-31.92748501 0 6.03420271-3.9379935 22.58180571-22.0056236 31.92748501z" transform="matrix(-.42261826 -.90630779 .90630779 -.42261826 20.060518 89.653421)"/></g></svg>