<svg height="84" viewBox="590 322 112 84" width="112" xmlns="http://www.w3.org/2000/svg"><ellipse cx="644.001637" cy="347.95915" fill="#d8d8d8" fill-rule="evenodd" opacity=".237757" rx="26.001637" ry="25.95915"/><text fill="none" font-family="ConcourseT6, Concourse T6" font-size="14" font-weight="500" letter-spacing=".204545438"><tspan fill="#fff" x="639.067727" y="353">H</tspan></text><path d="m689.746251 377.309897c2.535892-.734068 5.057622.784641 5.900384 3.767953l.339228 1.17189 4.207274-1.217885 1.04549 3.611725-13.063683 3.781558-1.390279-4.802825c-.906462-3.131441.079892-5.478249 2.961586-6.312416zm1.056612 3.650146c-1.018199.294739-1.32002 1.19413-1.041964 2.154695l.25025.864509 3.169864-.917584-.25025-.864509c-.239128-.826086-1.032856-1.554094-2.1279-1.237111zm-4.295172-21.600809.082482-.056539 2.374648 3.464253-2.559509 5.852325.147002.214454 4.470535-3.064427 2.125876 3.101331-11.21758 7.689337-2.872194-4.190097c-1.831871-2.672423-1.492611-5.184256.437472-6.507274 1.567162-1.074245 3.216131-.967937 4.542617-.058631zm-4.549344 9.422838c-.725844.497545-.848509 1.309058-.328348 2.067895l.63324.9238 2.358991-1.617022-.644547-.940297c-.47493-.692851-1.194514-.999768-2.019336-.434376zm-16.812999-15.517581c2.517896-3.361577 6.645643-3.768161 9.863152-1.358174 3.345569 2.505906 4.104005 6.397432 1.502179 9.871062-2.577847 3.441614-6.941625 3.796345-10.015067 1.494269-3.105456-2.326057-3.96408-6.51752-1.350264-10.007157zm3.097484 2.370061c-1.486758 1.984931-1.105531 3.944693.30313 4.999812 1.34463 1.007158 3.308535.853929 4.819273-1.163017 1.438798-1.920901 1.097621-3.800688-.423092-4.939736-1.440676-1.079099-3.284493-.785944-4.699311 1.102941zm-19.674594-.8415-.862252 3.206076 10.429404 2.804913.862251-3.206076-3.399213-.914194 2.669862-9.927247-3.630978-.976525-2.669861 9.927247zm-18.159471-1.394361c-.181101-4.196093 2.755319-7.125434 6.771581-7.298773 4.176112-.180239 7.228075 2.350516 7.415212 6.68648.185413 4.296001-2.96649 7.334735-6.802919 7.500313-3.876391.167302-7.195874-2.532075-7.383874-6.88802zm3.898098-.128202c.106936 2.477694 1.643339 3.752631 3.401702 3.676741 1.678438-.07244 3.101006-1.435048 2.992345-3.952704-.103486-2.397768-1.558239-3.636192-3.456472-3.554265-1.798326.077614-3.039337 1.472423-2.937575 3.830228zm-9.864352-.866837.338975 3.404805c-1.322484-.299726-2.785703-.184009-3.878192.312445-1.09249.496454-1.372276 1.04099-1.173694 1.477986.248227.546245 1.199982.465235 2.300697.470312 2.971104.011885 4.78516.571529 5.728422 2.64726.786051 1.729775.014475 4.189342-2.680333 5.413928-1.747984.794326-3.33866.967963-4.917718.828766l-.436631-3.426332c1.468149.233532 2.76254.084694 3.782197-.378663.546245-.248227.961738-.590814.746608-1.064226-.256501-.564453-1.555847-.523204-3.12995-.554811-3.129998-.071489-4.29681-1.188875-4.925651-2.572695-1.208037-2.658392.803256-4.758653 3.061068-5.784657 1.839025-.835697 3.879926-1.082118 5.184202-.774118zm-15.756856 23.441136 2.614537-2.356819-6.882984-7.635636 2.792801-2.517511 6.882984 7.635636 2.614537-2.35682 2.222909 2.465984-8.021875 7.23115zm-14.111367 6.17407 2.275579.375423 2.345656-3.863716-1.403742-1.811493 1.972012-3.248257 8.895659 11.553998-1.660642 2.735374-14.396534-2.493073zm9.165823 1.821012-2.656652-2.946489-1.255861 2.068627 3.819102 1.031727zm-13.171874 20.877665-.098268-.01853.778228-4.12727 5.952432-2.317185.048176-.255498-5.326144-1.004285.696699-3.694889 13.364495 2.519976-.941285 4.992032c-.600348 3.183894-2.619259 4.716342-4.918738 4.282758-1.867099-.352056-2.955589-1.595273-3.247607-3.176768zm9.886286-3.427499c.864761.163057 1.52624-.322789 1.696709-1.226858l.207527-1.100606-2.810475-.529936-.211233 1.120259c-.155645.825454.134789 1.551848 1.117472 1.737141z" fill="#fff" fill-rule="evenodd" opacity=".247435" transform="matrix(-1 0 0 -1 1291.708598 750.946786)"/></svg>